<svg height="512pt" viewBox="0 0 512 512" width="512pt" xmlns="http://www.w3.org/2000/svg"><path d="m256 0c-140.699219 0-256 115.300781-256 256s115.300781 256 256 256 256-115.300781 256-256-115.300781-256-256-256zm0 0" fill="#ff9469"/><path d="m512 256c0 140.699219-115.300781 256-256 256v-512c140.699219 0 256 115.300781 256 256zm0 0" fill="#ff5b5c"/><path d="m256 181c-90.902344 0-165 53.699219-165 120s74.097656 120 165 120 165-53.699219 165-120-74.097656-120-165-120zm0 0" fill="#edf5ff"/><path d="m173.96875 212.832031c-10.472656-19.644531-30.777344-31.832031-52.96875-31.832031-33.089844 0-60 26.910156-60 60 0 26.191406 17.503906 49.804688 42.566406 57.421875 7.890625 2.390625 16.292969-2.035156 18.722656-9.988281l45.511719-55.316406c7.308594-3.894532 10.078125-12.976563 6.167969-20.285157zm0 0" fill="#edf5ff"/><path d="m391 181c-22.191406 0-42.496094 12.1875-52.96875 31.832031-3.910156 7.308594-1.144531 16.390625 6.167969 20.285157l45.511719 55.316406c2.429687 7.953125 10.832031 12.378906 18.722656 9.988281 25.0625-7.617187 42.566406-31.230469 42.566406-57.421875 0-33.089844-26.910156-60-60-60zm0 0" fill="#d7e9ff"/><path d="m376 181c-24.8125 0-45-20.1875-45-45s20.1875-45 45-45 45 20.1875 45 45-20.1875 45-45 45zm0 0" fill="#d7e9ff"/><path d="m361.902344 131.199219c-2.703125 7.800781-11.101563 12.300781-19.203125 9.601562l-47.097657-15.902343-25.503906 75.902343c-1.796875 6.300781-7.796875 10.199219-14.097656 10.199219-1.800781 0-3-.300781-4.800781-.902344-7.796875-2.398437-12-11.097656-9.296875-18.898437l14.097656-42.300781 15.902344-47.699219c2.398437-7.800781 10.796875-12 18.898437-9.300781l61.5 20.402343c7.796875 2.699219 12 11.097657 9.601563 18.898438zm0 0" fill="#edf5ff"/><path d="m421 301c0 66.300781-74.097656 120-165 120v-240c90.902344 0 165 53.699219 165 120zm0 0" fill="#d7e9ff"/><path d="m361.902344 131.199219c-2.703125 7.800781-11.101563 12.300781-19.203125 9.601562l-47.097657-15.902343-25.503906 75.902343c-1.796875 6.300781-7.796875 10.199219-14.097656 10.199219v-62.101562l15.902344-47.699219c2.398437-7.800781 10.796875-12 18.898437-9.300781l61.5 20.402343c7.796875 2.699219 12 11.097657 9.601563 18.898438zm0 0" fill="#d7e9ff"/><path d="m196 301c-16.539062 0-30-13.460938-30-30s13.460938-30 30-30 30 13.460938 30 30-13.460938 30-30 30zm0 0" fill="#ff9469"/><path d="m322.597656 359.5c-20.695312 10.5-43.796875 15.597656-66.597656 15.597656s-45.902344-5.097656-66.597656-15.597656c-7.5-3.898438-10.503906-12.902344-6.902344-20.101562 3.898438-7.5 12.898438-10.5 20.097656-6.898438 16.804688 8.398438 35.101563 12.597656 53.402344 12.597656s36.597656-4.199218 53.402344-12.597656c7.199218-3.601562 16.199218-.601562 20.097656 6.898438 3.601562 7.199218.597656 16.203124-6.902344 20.101562zm0 0" fill="#ff9469"/><g fill="#ff5b5c"><path d="m316 301c-16.539062 0-30-13.460938-30-30s13.460938-30 30-30 30 13.460938 30 30-13.460938 30-30 30zm0 0"/><path d="m322.597656 359.5c-20.695312 10.5-43.796875 15.597656-66.597656 15.597656v-30c18.300781 0 36.597656-4.199218 53.402344-12.597656 7.199218-3.601562 16.199218-.601562 20.097656 6.898438 3.601562 7.199218.597656 16.203124-6.902344 20.101562zm0 0"/></g></svg>